<svg xmlns="http://www.w3.org/2000/svg" xmlns:xlink="http://www.w3.org/1999/xlink"><g><g><path stroke-width="2" stroke="#000" fill="none" d="M 100 553.2 L 790 553.2 L 779 542.2 M 790 553.2 L 779 564.2 "></path>
<text font-size="16.8" style="text-anchor:end; dominant-baseline:alphabetic" y="532.2" x="769">date</text>
<g><line stroke-width="2" stroke="#000" x1="129.46994" y1="547.7" x2="129.46994" y2="558.7"></line>
<line stroke-width="1.2" stroke="#000" stroke-opacity="0.1" x1="129.46994" y1="558.7" x2="129.46994" y2="558.7"></line>
<g><text font-size="14" style="text-anchor:middle; dominant-baseline:hanging" y="572.7" x="129.46994">2001-09-09 03h46m40s</text>
</g>
</g>
<g><line stroke-width="2" stroke="#000" x1="265.29866" y1="547.7" x2="265.29866" y2="558.7"></line>
<line stroke-width="1.2" stroke="#000" stroke-opacity="0.1" x1="265.29866" y1="558.7" x2="265.29866" y2="558.7"></line>
<g><text font-size="14" style="text-anchor:middle; dominant-baseline:hanging" y="572.7" x="265.29866">2004-11-09 12h33m20s</text>
</g>
</g>
<g><line stroke-width="2" stroke="#000" x1="401.12737" y1="547.7" x2="401.12737" y2="558.7"></line>
<line stroke-width="1.2" stroke="#000" stroke-opacity="0.1" x1="401.12737" y1="558.7" x2="401.12737" y2="558.7"></line>
<g><text font-size="14" style="text-anchor:middle; dominant-baseline:hanging" y="572.7" x="401.12737">2008-01-10 22h20m</text>
</g>
</g>
<g><line stroke-width="2" stroke="#000" x1="536.95609" y1="547.7" x2="536.95609" y2="558.7"></line>
<line stroke-width="1.2" stroke="#000" stroke-opacity="0.1" x1="536.95609" y1="558.7" x2="536.95609" y2="558.7"></line>
<g><text font-size="14" style="text-anchor:middle; dominant-baseline:hanging" y="572.7" x="536.95609">2011-03-13 08h06m40s</text>
</g>
</g>
<g><line stroke-width="2" stroke="#000" x1="672.78481" y1="547.7" x2="672.78481" y2="558.7"></line>
<line stroke-width="1.2" stroke="#000" stroke-opacity="0.1" x1="672.78481" y1="558.7" x2="672.78481" y2="558.7"></line>
<g><text font-size="14" style="text-anchor:middle; dominant-baseline:hanging" y="572.7" x="672.78481">2014-05-13 18h53m20s</text>
</g>
</g>
</g>
<g><path stroke-width="2" stroke="#000" fill="none" d="M 100 553.2 L 100 30 L 89 41 M 100 30 L 111 41 "></path>
<text font-size="16.8" style="text-anchor:start; dominant-baseline:central" y="51" x="121">Nbr of Cases</text>
<g><line stroke-width="2" stroke="#000" x1="94.5" y1="553.2" x2="105.5" y2="553.2"></line>
<line stroke-width="1.2" stroke="#000" stroke-opacity="0.1" x1="105.5" y1="553.2" x2="795.5" y2="553.2"></line>
<g><text font-size="14" style="text-anchor:end; dominant-baseline:central" y="553.2" x="80.5">0</text>
</g>
</g>
<g><line stroke-width="2" stroke="#000" x1="94.5" y1="408.3495" x2="105.5" y2="408.3495"></line>
<line stroke-width="1.2" stroke="#000" stroke-opacity="0.1" x1="105.5" y1="408.3495" x2="795.5" y2="408.3495"></line>
<g><text font-size="14" style="text-anchor:end; dominant-baseline:central" y="408.3495" x="80.5">500</text>
</g>
</g>
<g><line stroke-width="2" stroke="#000" x1="94.5" y1="263.499" x2="105.5" y2="263.499"></line>
<line stroke-width="1.2" stroke="#000" stroke-opacity="0.1" x1="105.5" y1="263.499" x2="795.5" y2="263.499"></line>
<g><text font-size="14" style="text-anchor:end; dominant-baseline:central" y="263.499" x="80.5">1000</text>
</g>
</g>
<g><line stroke-width="2" stroke="#000" x1="94.5" y1="118.6485" x2="105.5" y2="118.6485"></line>
<line stroke-width="1.2" stroke="#000" stroke-opacity="0.1" x1="105.5" y1="118.6485" x2="795.5" y2="118.6485"></line>
<g><text font-size="14" style="text-anchor:end; dominant-baseline:central" y="118.6485" x="80.5">1500</text>
</g>
</g>
</g>
<g></g>
</g>
<g><path stroke-width="1" stroke="#425501" fill-opacity="0.7" stroke-opacity="1" fill="#425501" d="M 103.46734 439.63721 L 110.40201 434.71229 L 117.33668 450.64585 L 124.27136 427.75947 L 131.20603 455.28106 L 138.1407 436.1608 L 145.07538 461.94419 L 152.01005 456.15017 L 158.94472 439.63721 L 165.8794 441.08571 L 172.81407 446.01063 L 179.74874 480.19535 L 186.68342 446.30033 L 193.61809 459.91628 L 200.55276 438.1887 L 207.48744 451.51495 L 214.42211 449.19734 L 221.35678 443.69302 L 228.29146 456.43987 L 235.22613 464.8412 L 242.1608 461.65449 L 249.09548 443.40332 L 256.03015 452.38405 L 262.96482 439.63721 L 269.8995 431.81528 L 276.83417 441.37542 L 283.76884 445.14153 L 290.70352 463.39269 L 297.63819 436.4505 L 304.57286 436.1608 L 311.50754 455.86047 L 318.44221 432.97409 L 325.37688 452.96346 L 332.31156 425.44186 L 339.24623 452.38405 L 346.1809 454.41196 L 353.11558 455.28106 L 360.05025 438.1887 L 366.98492 457.59867 L 373.9196 464.5515 L 380.85427 447.45914 L 387.78894 430.65648 L 394.72362 459.04718 L 401.65829 484.25116 L 408.59296 475.27043 L 415.52764 486.85847 L 422.46231 452.96346 L 429.39698 467.4485 L 436.33166 478.16744 L 443.26633 471.21462 L 450.20101 476.42924 L 457.13568 460.49568 L 464.07035 466.2897 L 471.00503 461.65449 L 477.9397 475.84983 L 484.87437 469.18671 L 491.80905 455.57076 L 498.74372 466.2897 L 505.67839 471.21462 L 512.61307 477.58804 L 519.54774 474.69103 L 526.48241 481.35415 L 533.41709 473.53223 L 540.35176 487.43787 L 547.28643 468.89701 L 554.22111 477.00864 L 561.15578 470.63522 L 568.09045 465.1309 L 575.02513 493.8113 L 581.9598 481.35415 L 588.89447 490.04518 L 595.82915 474.98073 L 602.76382 490.62458 L 609.69849 475.56013 L 616.63317 499.60532 L 623.56784 494.6804 L 630.50251 489.17608 L 637.43719 478.16744 L 644.37186 476.42924 L 651.30653 494.9701 L 658.24121 501.34352 L 665.17588 494.3907 L 672.11055 484.83056 L 679.04523 482.22326 L 685.9799 480.48505 L 692.91457 486.56877 L 699.84925 505.10963 L 706.78392 489.75548 L 713.71859 498.15681 L 720.65327 490.33488 L 727.58794 498.15681 L 734.52261 493.23189 L 741.45729 501.63322 L 748.39196 523.6505 L 755.32663 501.63322 L 762.26131 504.53023 L 769.19598 517.27708 L 776.13065 519.88439 L 783.06533 525.96811 L 790 519.59468 L 790 553.2 L 783.06533 553.2 L 776.13065 553.2 L 769.19598 553.2 L 762.26131 553.2 L 755.32663 553.2 L 748.39196 553.2 L 741.45729 553.2 L 734.52261 553.2 L 727.58794 553.2 L 720.65327 553.2 L 713.71859 553.2 L 706.78392 553.2 L 699.84925 553.2 L 692.91457 553.2 L 685.9799 553.2 L 679.04523 553.2 L 672.11055 553.2 L 665.17588 553.2 L 658.24121 553.2 L 651.30653 553.2 L 644.37186 553.2 L 637.43719 553.2 L 630.50251 553.2 L 623.56784 553.2 L 616.63317 553.2 L 609.69849 553.2 L 602.76382 553.2 L 595.82915 553.2 L 588.89447 553.2 L 581.9598 553.2 L 575.02513 553.2 L 568.09045 553.2 L 561.15578 553.2 L 554.22111 553.2 L 547.28643 553.2 L 540.35176 553.2 L 533.41709 553.2 L 526.48241 553.2 L 519.54774 553.2 L 512.61307 553.2 L 505.67839 553.2 L 498.74372 553.2 L 491.80905 553.2 L 484.87437 553.2 L 477.9397 553.2 L 471.00503 553.2 L 464.07035 553.2 L 457.13568 553.2 L 450.20101 553.2 L 443.26633 553.2 L 436.33166 553.2 L 429.39698 553.2 L 422.46231 553.2 L 415.52764 553.2 L 408.59296 553.2 L 401.65829 553.2 L 394.72362 553.2 L 387.78894 553.2 L 380.85427 553.2 L 373.9196 553.2 L 366.98492 553.2 L 360.05025 553.2 L 353.11558 553.2 L 346.1809 553.2 L 339.24623 553.2 L 332.31156 553.2 L 325.37688 553.2 L 318.44221 553.2 L 311.50754 553.2 L 304.57286 553.2 L 297.63819 553.2 L 290.70352 553.2 L 283.76884 553.2 L 276.83417 553.2 L 269.8995 553.2 L 262.96482 553.2 L 256.03015 553.2 L 249.09548 553.2 L 242.1608 553.2 L 235.22613 553.2 L 228.29146 553.2 L 221.35678 553.2 L 214.42211 553.2 L 207.48744 553.2 L 200.55276 553.2 L 193.61809 553.2 L 186.68342 553.2 L 179.74874 553.2 L 172.81407 553.2 L 165.8794 553.2 L 158.94472 553.2 L 152.01005 553.2 L 145.07538 553.2 L 138.1407 553.2 L 131.20603 553.2 L 124.27136 553.2 L 117.33668 553.2 L 110.40201 553.2 L 103.46734 553.2 Z" class="fitem with"></path>
<path stroke-width="1" stroke="#bda9c2" fill-opacity="0.7" stroke-opacity="1" fill="#bda9c2" d="M 103.46734 30 L 110.40201 92.28571 L 117.33668 178.03721 L 124.27136 158.33754 L 131.20603 151.96412 L 138.1407 149.35681 L 145.07538 209.32492 L 152.01005 213.96013 L 158.94472 158.04784 L 165.8794 144.43189 L 172.81407 143.27309 L 179.74874 220.91296 L 186.68342 182.96213 L 193.61809 255.67708 L 200.55276 184.41063 L 207.48744 143.56279 L 214.42211 158.33754 L 221.35678 163.26246 L 228.29146 142.98339 L 235.22613 269.29302 L 242.1608 217.43654 L 249.09548 172.82259 L 256.03015 184.70033 L 262.96482 144.72159 L 269.8995 162.97276 L 276.83417 246.69635 L 283.76884 200.34419 L 290.70352 216.56744 L 297.63819 166.73887 L 304.57286 146.7495 L 311.50754 203.8206 L 318.44221 208.45581 L 325.37688 211.35282 L 332.31156 140.37608 L 339.24623 174.8505 L 346.1809 190.49435 L 353.11558 201.79269 L 360.05025 222.07176 L 366.98492 266.39601 L 373.9196 242.06113 L 380.85427 200.92359 L 387.78894 180.93422 L 394.72362 172.24319 L 401.65829 271.61063 L 408.59296 241.77143 L 415.52764 271.03123 L 422.46231 146.7495 L 429.39698 187.01794 L 436.33166 220.91296 L 443.26633 240.61262 L 450.20101 276.53555 L 457.13568 211.64252 L 464.07035 178.61661 L 471.00503 220.91296 L 477.9397 245.24784 L 484.87437 238.87442 L 491.80905 250.46246 L 498.74372 229.60399 L 505.67839 237.42591 L 512.61307 251.91096 L 519.54774 252.20066 L 526.48241 254.22857 L 533.41709 281.75017 L 540.35176 328.10233 L 547.28643 231.34219 L 554.22111 242.35083 L 561.15578 280.30166 L 568.09045 262.3402 L 575.02513 350.4093 L 581.9598 254.80797 L 588.89447 320.5701 L 595.82915 250.17276 L 602.76382 291.0206 L 609.69849 258.57409 L 616.63317 341.13887 L 623.56784 336.50365 L 630.50251 307.82326 L 637.43719 257.41528 L 644.37186 285.80598 L 651.30653 328.10233 L 658.24121 364.60465 L 665.17588 378.8 L 672.11055 337.37276 L 679.04523 302.31894 L 685.9799 314.77608 L 692.91457 328.68173 L 699.84925 325.20532 L 706.78392 350.1196 L 713.71859 374.16478 L 720.65327 340.55947 L 727.58794 312.74817 L 734.52261 328.68173 L 741.45729 347.51229 L 748.39196 405.45249 L 755.32663 325.20532 L 762.26131 327.52292 L 769.19598 333.89635 L 776.13065 335.34485 L 783.06533 360.54884 L 790 387.49103 L 790 519.59468 L 783.06533 525.96811 L 776.13065 519.88439 L 769.19598 517.27708 L 762.26131 504.53023 L 755.32663 501.63322 L 748.39196 523.6505 L 741.45729 501.63322 L 734.52261 493.23189 L 727.58794 498.15681 L 720.65327 490.33488 L 713.71859 498.15681 L 706.78392 489.75548 L 699.84925 505.10963 L 692.91457 486.56877 L 685.9799 480.48505 L 679.04523 482.22326 L 672.11055 484.83056 L 665.17588 494.3907 L 658.24121 501.34352 L 651.30653 494.9701 L 644.37186 476.42924 L 637.43719 478.16744 L 630.50251 489.17608 L 623.56784 494.6804 L 616.63317 499.60532 L 609.69849 475.56013 L 602.76382 490.62458 L 595.82915 474.98073 L 588.89447 490.04518 L 581.9598 481.35415 L 575.02513 493.8113 L 568.09045 465.1309 L 561.15578 470.63522 L 554.22111 477.00864 L 547.28643 468.89701 L 540.35176 487.43787 L 533.41709 473.53223 L 526.48241 481.35415 L 519.54774 474.69103 L 512.61307 477.58804 L 505.67839 471.21462 L 498.74372 466.2897 L 491.80905 455.57076 L 484.87437 469.18671 L 477.9397 475.84983 L 471.00503 461.65449 L 464.07035 466.2897 L 457.13568 460.49568 L 450.20101 476.42924 L 443.26633 471.21462 L 436.33166 478.16744 L 429.39698 467.4485 L 422.46231 452.96346 L 415.52764 486.85847 L 408.59296 475.27043 L 401.65829 484.25116 L 394.72362 459.04718 L 387.78894 430.65648 L 380.85427 447.45914 L 373.9196 464.5515 L 366.98492 457.59867 L 360.05025 438.1887 L 353.11558 455.28106 L 346.1809 454.41196 L 339.24623 452.38405 L 332.31156 425.44186 L 325.37688 452.96346 L 318.44221 432.97409 L 311.50754 455.86047 L 304.57286 436.1608 L 297.63819 436.4505 L 290.70352 463.39269 L 283.76884 445.14153 L 276.83417 441.37542 L 269.8995 431.81528 L 262.96482 439.63721 L 256.03015 452.38405 L 249.09548 443.40332 L 242.1608 461.65449 L 235.22613 464.8412 L 228.29146 456.43987 L 221.35678 443.69302 L 214.42211 449.19734 L 207.48744 451.51495 L 200.55276 438.1887 L 193.61809 459.91628 L 186.68342 446.30033 L 179.74874 480.19535 L 172.81407 446.01063 L 165.8794 441.08571 L 158.94472 439.63721 L 152.01005 456.15017 L 145.07538 461.94419 L 138.1407 436.1608 L 131.20603 455.28106 L 124.27136 427.75947 L 117.33668 450.64585 L 110.40201 434.71229 L 103.46734 439.63721 Z" class="fitem without"></path>
</g>
<g><rect stroke-width="0" fill-opacity="0.7" fill="#ddd" x="709.84" y="10" width="80.16" height="34.56"></rect>
<g><rect stroke-width="1" stroke="#000" fill-opacity="1" fill="#bda9c2" x="712.72" y="27.28" width="24" height="12"></rect>
<text font-size="12" y="39.28" x="738.72">without</text>
</g>
<g><rect stroke-width="1" stroke="#000" fill-opacity="1" fill="#425501" x="712.72" y="12.88" width="24" height="12"></rect>
<text font-size="12" y="24.88" x="738.72">with</text>
</g>
</g>
</svg>
